<svg width="26" height="26" viewBox="0 0 26 26" fill="none" xmlns="http://www.w3.org/2000/svg">
<g id="CaretDoubleDown">
<path id="Vector" d="M12.9691 4.70402C13.0738 4.59933 13.1982 4.51634 13.335 4.45981C13.4718 4.40328 13.6185 4.37431 13.7666 4.37458C13.9146 4.37485 14.0612 4.40434 14.1978 4.46137C14.3345 4.5184 14.4585 4.60184 14.5628 4.70691L22.0493 12.2205C22.1539 12.3252 22.2369 12.4495 22.2935 12.5864C22.35 12.7232 22.379 12.8699 22.3787 13.0179C22.3784 13.166 22.3489 13.3126 22.2919 13.4492C22.2349 13.5859 22.1514 13.7099 22.0464 13.8142L14.5328 21.3006C14.428 21.4051 14.3036 21.4879 14.1668 21.5443C14.0299 21.6006 13.8833 21.6295 13.7353 21.6293C13.5873 21.629 13.4409 21.5996 13.3042 21.5427C13.1676 21.4858 13.0435 21.4026 12.9391 21.2977C12.8346 21.1929 12.7518 21.0685 12.6954 20.9317C12.639 20.7949 12.6102 20.6483 12.6104 20.5003C12.6107 20.3523 12.6401 20.2058 12.697 20.0692C12.7539 19.9325 12.8371 19.8085 12.9419 19.704L19.6563 13.0121L12.9634 6.29589C12.8592 6.19104 12.7766 6.06667 12.7205 5.92989C12.6644 5.79312 12.6358 5.64662 12.6363 5.49878C12.6368 5.35093 12.6665 5.20465 12.7236 5.06828C12.7807 4.93191 12.8641 4.80813 12.9691 4.70402ZM14.5464 13.8006C14.6515 13.6963 14.7349 13.5723 14.7919 13.4356C14.849 13.299 14.8784 13.1524 14.8787 13.0044C14.879 12.8563 14.85 12.7096 14.7935 12.5728C14.737 12.4359 14.654 12.3116 14.5493 12.2069L7.06286 4.69333C6.9584 4.5885 6.83432 4.50526 6.6977 4.44838C6.56107 4.3915 6.41458 4.36208 6.26659 4.36181C6.11859 4.36155 5.972 4.39043 5.83517 4.44682C5.69833 4.5032 5.57395 4.58599 5.46911 4.69045C5.36428 4.7949 5.28104 4.91899 5.22416 5.05561C5.16728 5.19224 5.13786 5.33873 5.1376 5.48672C5.13733 5.63472 5.16621 5.78131 5.2226 5.91814C5.27899 6.05497 5.36177 6.17936 5.46623 6.28419L12.1563 12.9985L5.44196 19.6904C5.23023 19.9014 5.11098 20.1878 5.11044 20.4867C5.1099 20.7856 5.22811 21.0724 5.43907 21.2842C5.65003 21.4959 5.93646 21.6151 6.23535 21.6157C6.53423 21.6162 6.82109 21.498 7.03282 21.2871L14.5464 13.8006Z" fill="#1F3A5F"/>
</g>
</svg>
