<svg xmlns="http://www.w3.org/2000/svg" width="25" height="25" viewBox="0 0 25 25" fill="none">
  <path d="M20.5673 16.2045C20.4976 16.2743 20.4149 16.3296 20.3239 16.3673C20.2328 16.4051 20.1352 16.4245 20.0367 16.4245C19.9381 16.4245 19.8405 16.4051 19.7495 16.3673C19.6584 16.3296 19.5757 16.2743 19.506 16.2045L12.5367 9.23421L5.5673 16.2045C5.42657 16.3453 5.23569 16.4243 5.03667 16.4243C4.83765 16.4243 4.64678 16.3453 4.50605 16.2045C4.36532 16.0638 4.28625 15.8729 4.28625 15.6739C4.28625 15.4749 4.36532 15.284 4.50605 15.1433L12.006 7.64327C12.0757 7.57354 12.1584 7.51822 12.2495 7.48048C12.3405 7.44274 12.4381 7.42331 12.5367 7.42331C12.6352 7.42331 12.7328 7.44274 12.8239 7.48048C12.9149 7.51822 12.9976 7.57354 13.0673 7.64327L20.5673 15.1433C20.637 15.2129 20.6923 15.2956 20.7301 15.3867C20.7678 15.4777 20.7873 15.5753 20.7873 15.6739C20.7873 15.7725 20.7678 15.8701 20.7301 15.9611C20.6923 16.0522 20.637 16.1349 20.5673 16.2045Z" fill="white"/>
</svg>