<svg xmlns="http://www.w3.org/2000/svg" width="25" height="24" viewBox="0 0 25 24" fill="none">
  <path d="M20.3378 9.52918L12.8378 17.0292C12.7682 17.0989 12.6854 17.1542 12.5944 17.192C12.5033 17.2297 12.4057 17.2491 12.3072 17.2491C12.2086 17.2491 12.111 17.2297 12.02 17.192C11.9289 17.1542 11.8462 17.0989 11.7766 17.0292L4.27655 9.52918C4.13582 9.38845 4.05676 9.19758 4.05676 8.99856C4.05676 8.79953 4.13582 8.60866 4.27655 8.46793C4.41729 8.3272 4.60816 8.24814 4.80718 8.24814C5.0062 8.24814 5.19707 8.3272 5.3378 8.46793L12.3072 15.4382L19.2766 8.46793C19.3462 8.39825 19.429 8.34297 19.52 8.30526C19.6111 8.26755 19.7086 8.24814 19.8072 8.24814C19.9057 8.24814 20.0033 8.26755 20.0944 8.30526C20.1854 8.34297 20.2681 8.39825 20.3378 8.46793C20.4075 8.53761 20.4628 8.62034 20.5005 8.71138C20.5382 8.80243 20.5576 8.90001 20.5576 8.99856C20.5576 9.0971 20.5382 9.19468 20.5005 9.28573C20.4628 9.37677 20.4075 9.4595 20.3378 9.52918Z" fill="white"/>
</svg>