<svg width="24" height="24" viewBox="0 0 24 24" fill="none" xmlns="http://www.w3.org/2000/svg">
<g id="CaretDoubleDown">
<path id="Vector" d="M20.2959 11.9541C20.4008 12.0586 20.484 12.1828 20.5408 12.3196C20.5976 12.4563 20.6268 12.6029 20.6268 12.751C20.6268 12.899 20.5976 13.0456 20.5408 13.1824C20.484 13.3191 20.4008 13.4433 20.2959 13.5478L12.7959 21.0478C12.6914 21.1527 12.5672 21.2359 12.4304 21.2927C12.2937 21.3495 12.1471 21.3787 11.999 21.3787C11.851 21.3787 11.7043 21.3495 11.5676 21.2927C11.4309 21.2359 11.3067 21.1527 11.2021 21.0478L3.70215 13.5478C3.5975 13.4432 3.51449 13.319 3.45785 13.1822C3.40122 13.0455 3.37207 12.899 3.37207 12.751C3.37207 12.603 3.40122 12.4564 3.45785 12.3197C3.51449 12.183 3.5975 12.0587 3.70215 11.9541C3.80679 11.8495 3.93103 11.7664 4.06776 11.7098C4.20448 11.6532 4.35103 11.624 4.49902 11.624C4.64702 11.624 4.79356 11.6532 4.93029 11.7098C5.06702 11.7664 5.19125 11.8495 5.2959 11.9541L12 18.6563L18.704 11.9513C18.8087 11.8469 18.9329 11.7641 19.0696 11.7077C19.2063 11.6514 19.3527 11.6225 19.5005 11.6227C19.6484 11.623 19.7947 11.6524 19.9312 11.7093C20.0677 11.7661 20.1916 11.8493 20.2959 11.9541ZM11.2021 13.5478C11.3067 13.6527 11.4309 13.7359 11.5676 13.7927C11.7043 13.8495 11.851 13.8787 11.999 13.8787C12.1471 13.8787 12.2937 13.8495 12.4304 13.7927C12.5672 13.7359 12.6914 13.6527 12.7959 13.5478L20.2959 6.04785C20.4005 5.9432 20.4836 5.81897 20.5402 5.68224C20.5968 5.54551 20.626 5.39897 20.626 5.25097C20.626 5.10298 20.5968 4.95644 20.5402 4.81971C20.4836 4.68298 20.4005 4.55875 20.2959 4.4541C20.1912 4.34945 20.067 4.26644 19.9303 4.20981C19.7936 4.15317 19.647 4.12402 19.499 4.12402C19.351 4.12402 19.2045 4.15317 19.0678 4.20981C18.931 4.26644 18.8068 4.34945 18.7021 4.4541L12 11.1563L5.2959 4.4541C5.08455 4.24276 4.79791 4.12402 4.49902 4.12402C4.20014 4.12402 3.91349 4.24276 3.70215 4.4541C3.4908 4.66544 3.37207 4.95209 3.37207 5.25097C3.37207 5.54986 3.4908 5.83651 3.70215 6.04785L11.2021 13.5478Z" fill="#F2F2F2"/>
</g>
</svg>
