<svg fill="#D4AF37" viewBox="-2 -2 24 24"
    xmlns="http://www.w3.org/2000/svg" preserveAspectRatio="xMinYMin" class="jam jam-arrow-square-down-f" stroke="#D4AF37" transform="rotate(270)">
    <g id="SVGRepo_bgCarrier" stroke-width="0"></g>
    <g id="SVGRepo_tracerCarrier" stroke-linecap="round" stroke-linejoin="round"></g>
    <g id="SVGRepo_iconCarrier">
        <path d="M9.293 14.707a.997.997 0 0 0 1.414 0l4.243-4.243a1 1 0 1 0-1.414-1.414L11 11.586V6a1 1 0 0 0-2 0v5.586L6.464 9.05a1 1 0 1 0-1.414 1.414l4.243 4.243zM4 0h12a4 4 0 0 1 4 4v12a4 4 0 0 1-4 4H4a4 4 0 0 1-4-4V4a4 4 0 0 1 4-4z"></path>
    </g>
</svg>