<?xml version="1.0" standalone="no"?>
<!DOCTYPE svg PUBLIC "-//W3C//DTD SVG 20010904//EN"
 "http://www.w3.org/TR/2001/REC-SVG-20010904/DTD/svg10.dtd">
<svg version="1.0" xmlns="http://www.w3.org/2000/svg"
 width="3500.000000pt" height="559.000000pt" viewBox="0 0 3500.000000 559.000000"
 preserveAspectRatio="xMidYMid meet">

<g transform="translate(0.000000,559.000000) scale(0.100000,-0.100000)"
fill="#000000" stroke="none">
<path d="M20485 4638 c-3 -7 -72 -319 -155 -693 -83 -374 -153 -689 -156 -699
-5 -15 -11 -9 -31 30 -82 163 -232 276 -438 330 -109 29 -418 27 -537 -4 -256
-68 -463 -191 -646 -388 -237 -253 -395 -602 -458 -1014 -27 -174 -25 -458 4
-565 44 -164 138 -316 253 -412 202 -167 568 -223 902 -139 213 54 407 185
569 383 28 35 53 62 54 60 2 -2 -12 -91 -31 -198 -19 -107 -35 -202 -35 -211
0 -17 28 -18 444 -18 l444 0 7 48 c24 165 113 580 420 1949 190 849 345 1545
345 1548 0 3 -214 5 -475 5 -372 0 -477 -3 -480 -12z m-655 -1590 c79 -24 143
-90 176 -183 23 -65 30 -266 14 -378 -17 -116 -63 -287 -105 -392 -133 -329
-359 -506 -593 -465 -105 18 -173 65 -217 150 -102 197 -20 707 160 996 142
227 362 333 565 272z"/>
<path d="M13545 4416 c-478 -58 -887 -214 -1198 -457 -72 -57 -230 -212 -287
-284 -278 -349 -425 -833 -407 -1333 7 -214 45 -362 135 -536 151 -293 434
-526 790 -650 235 -82 415 -109 707 -109 231 0 434 17 636 53 125 23 299 66
311 78 7 7 98 626 98 661 0 5 -51 -7 -112 -25 -579 -173 -1047 -122 -1303 140
-156 161 -221 383 -196 672 27 298 114 526 277 725 189 231 492 378 846 409
256 23 562 -28 761 -125 46 -23 70 -30 73 -22 2 7 53 160 113 340 109 325 110
328 88 336 -101 39 -298 84 -487 113 -174 26 -674 34 -845 14z"/>
<path d="M28540 4196 l-505 -141 -51 -230 -50 -230 -227 -3 c-204 -2 -226 -4
-231 -20 -3 -9 -30 -127 -61 -262 -30 -135 -57 -255 -60 -267 l-5 -23 225 0
c124 0 225 -3 225 -6 0 -4 -49 -228 -110 -498 -159 -714 -151 -672 -157 -846
-4 -120 -2 -170 11 -223 71 -302 327 -428 809 -397 89 5 206 17 260 25 116 17
329 64 338 73 5 6 100 555 99 574 0 4 -30 -2 -67 -13 -84 -25 -261 -36 -320
-20 -52 14 -101 55 -119 98 -32 76 -20 160 101 704 63 284 115 519 115 523 0
3 130 6 288 6 l288 0 58 268 c32 147 60 275 62 284 5 16 -15 18 -279 20 l-284
3 77 346 c42 190 80 358 84 372 3 15 3 27 -1 26 -5 -1 -235 -65 -513 -143z"/>
<path d="M16585 3630 c-488 -51 -973 -239 -1305 -507 -118 -96 -270 -260 -348
-377 -153 -229 -233 -456 -263 -746 -42 -420 100 -727 399 -867 234 -109 568
-118 832 -22 186 68 376 224 518 423 34 49 62 85 62 80 0 -5 -18 -99 -39 -209
-22 -110 -43 -224 -47 -252 l-7 -53 491 0 491 0 5 43 c3 23 10 92 16 152 21
202 58 384 265 1299 158 699 202 911 193 918 -20 12 -212 56 -318 72 -277 44
-743 66 -945 46z m154 -560 c35 -5 65 -11 68 -13 7 -7 -123 -498 -169 -637
-118 -360 -289 -627 -470 -733 -189 -110 -417 -52 -468 121 -31 102 -22 294
21 458 108 414 477 759 859 804 92 11 89 11 159 0z"/>
<path d="M23340 3634 c-19 -2 -78 -9 -130 -15 -426 -48 -857 -214 -1176 -452
-373 -279 -593 -637 -659 -1072 -21 -143 -19 -348 5 -463 50 -245 204 -431
430 -520 233 -91 563 -89 798 5 187 74 352 211 501 413 75 102 71 96 65 73 -5
-21 -79 -409 -88 -465 l-7 -38 496 0 495 0 0 38 c0 63 30 300 56 442 14 74
115 535 225 1023 111 488 199 893 196 901 -10 25 -298 83 -559 111 -137 15
-575 28 -648 19z m133 -570 c16 -3 27 -12 27 -21 0 -29 -131 -515 -171 -635
-128 -385 -307 -645 -509 -742 -59 -28 -74 -31 -160 -31 -73 0 -104 4 -133 19
-120 60 -164 181 -146 402 21 269 126 504 311 699 227 239 527 357 781 309z"/>
<path d="M26100 3633 c-262 -25 -380 -47 -550 -99 -371 -114 -600 -317 -665
-591 -24 -100 -17 -275 14 -355 74 -191 252 -316 666 -471 330 -123 401 -163
437 -243 22 -52 18 -87 -17 -150 -53 -91 -188 -144 -417 -165 -233 -20 -481
26 -736 138 -57 25 -105 43 -107 41 -9 -8 -176 -561 -171 -565 2 -3 37 -13 78
-24 312 -81 713 -119 1040 -99 515 31 849 147 1069 370 61 61 86 97 123 171
65 132 80 199 80 349 0 108 -3 133 -23 183 -76 192 -259 318 -691 478 -316
116 -411 171 -447 258 -32 75 19 166 119 217 198 100 626 77 984 -54 l81 -30
92 261 c50 143 88 264 84 268 -11 10 -266 64 -393 83 -211 32 -495 45 -650 29z"/>
<path d="M34635 3625 c-295 -54 -509 -218 -722 -552 -11 -17 -11 -17 -7 2 30
151 94 486 94 494 0 8 -133 11 -455 11 l-455 0 0 -32 c0 -73 -41 -267 -276
-1317 -135 -603 -247 -1104 -250 -1113 -5 -17 22 -18 475 -18 448 0 480 1 485
18 3 9 55 242 116 517 139 626 161 695 278 861 119 168 277 281 462 331 79 21
292 24 359 4 23 -7 45 -11 46 -9 2 2 49 174 104 382 55 209 103 387 106 396 4
14 -5 19 -51 29 -74 14 -220 13 -309 -4z"/>
<path d="M29875 3578 c-2 -7 -90 -402 -196 -878 -181 -820 -192 -872 -196
-996 -7 -160 7 -249 53 -344 65 -137 206 -241 385 -284 111 -27 272 -38 392
-27 301 29 525 143 753 385 69 73 94 94 90 76 -8 -35 -66 -386 -66 -399 0 -8
130 -11 449 -11 l450 0 6 57 c16 133 68 381 285 1369 127 572 230 1046 230
1052 0 9 -118 12 -478 12 l-478 0 -163 -742 c-90 -409 -174 -777 -187 -818
-60 -191 -170 -328 -304 -382 -80 -32 -247 -33 -306 -1 -93 50 -119 110 -111
262 4 89 31 226 176 876 94 424 174 778 177 788 5 16 -22 17 -476 17 -376 0
-482 -3 -485 -12z"/>
</g>
</svg>
