<svg xmlns="http://www.w3.org/2000/svg" width="25" height="25" viewBox="0 0 25 25" fill="none">
  <path d="M12.2163 2.80157C10.2879 2.80157 8.40288 3.3734 6.7995 4.44475C5.19612 5.51609 3.94644 7.03883 3.20849 8.82041C2.47053 10.602 2.27745 12.5624 2.65366 14.4537C3.02986 16.345 3.95846 18.0823 5.32202 19.4459C6.68558 20.8094 8.42287 21.738 10.3142 22.1142C12.2055 22.4904 14.1659 22.2974 15.9475 21.5594C17.7291 20.8214 19.2518 19.5718 20.3231 17.9684C21.3945 16.365 21.9663 14.4799 21.9663 12.5516C21.9636 9.96655 20.9355 7.48819 19.1076 5.6603C17.2797 3.83241 14.8013 2.8043 12.2163 2.80157ZM12.2163 20.8016C10.5846 20.8016 8.98956 20.3177 7.63286 19.4112C6.27615 18.5047 5.21873 17.2162 4.59431 15.7087C3.96988 14.2012 3.80651 12.5424 4.12483 10.9421C4.44316 9.34174 5.2289 7.87173 6.38268 6.71794C7.53647 5.56416 9.00647 4.77842 10.6068 4.4601C12.2072 4.14177 13.866 4.30515 15.3735 4.92957C16.8809 5.55399 18.1694 6.61141 19.0759 7.96812C19.9825 9.32483 20.4663 10.9199 20.4663 12.5516C20.4638 14.7388 19.5938 16.8358 18.0472 18.3825C16.5006 19.9291 14.4036 20.7991 12.2163 20.8016ZM7.71631 10.6766C7.71631 10.4541 7.78229 10.2366 7.90591 10.0516C8.02953 9.86655 8.20523 9.72236 8.41079 9.63721C8.61636 9.55206 8.84256 9.52978 9.06079 9.57319C9.27902 9.6166 9.47947 9.72375 9.63681 9.88108C9.79414 10.0384 9.90129 10.2389 9.9447 10.4571C9.9881 10.6753 9.96583 10.9015 9.88068 11.1071C9.79553 11.3127 9.65133 11.4884 9.46633 11.612C9.28132 11.7356 9.06382 11.8016 8.84131 11.8016C8.54294 11.8016 8.2568 11.683 8.04582 11.4721C7.83484 11.2611 7.71631 10.9749 7.71631 10.6766ZM16.7163 10.6766C16.7163 10.8991 16.6503 11.1166 16.5267 11.3016C16.4031 11.4866 16.2274 11.6308 16.0218 11.7159C15.8163 11.8011 15.5901 11.8234 15.3718 11.78C15.1536 11.7365 14.9532 11.6294 14.7958 11.4721C14.6385 11.3147 14.5313 11.1143 14.4879 10.8961C14.4445 10.6778 14.4668 10.4516 14.5519 10.2461C14.6371 10.0405 14.7813 9.86479 14.9663 9.74117C15.1513 9.61755 15.3688 9.55157 15.5913 9.55157C15.8897 9.55157 16.1758 9.6701 16.3868 9.88108C16.5978 10.0921 16.7163 10.3782 16.7163 10.6766ZM16.616 15.1766C15.6513 16.8444 14.0473 17.8016 12.2163 17.8016C10.3854 17.8016 8.78225 16.8453 7.81756 15.1766C7.7633 15.0912 7.72686 14.9958 7.71044 14.8959C7.69403 14.7961 7.69797 14.694 7.72203 14.5958C7.7461 14.4975 7.78979 14.4052 7.85048 14.3242C7.91116 14.2433 7.98759 14.1755 8.07517 14.1249C8.16274 14.0743 8.25965 14.0419 8.36006 14.0297C8.46048 14.0175 8.56232 14.0257 8.65947 14.0539C8.75661 14.0821 8.84705 14.1296 8.92535 14.1937C9.00364 14.2577 9.06818 14.3369 9.11506 14.4266C9.81538 15.6369 10.916 16.3016 12.2163 16.3016C13.5166 16.3016 14.6173 15.6359 15.3166 14.4266C15.4161 14.2543 15.5799 14.1285 15.7721 14.077C15.9642 14.0255 16.169 14.0524 16.3413 14.1519C16.5136 14.2513 16.6394 14.4152 16.6909 14.6073C16.7424 14.7995 16.7155 15.0043 16.616 15.1766Z" fill="#2C3E50"/>
</svg>