<svg width="45" height="45" viewBox="0 0 45 45" fill="none" xmlns="http://www.w3.org/2000/svg">
<path d="M22.5 14.0625C20.8312 14.0625 19.1999 14.5574 17.8124 15.4845C16.4248 16.4116 15.3434 17.7294 14.7048 19.2711C14.0662 20.8129 13.8991 22.5094 14.2246 24.1461C14.5502 25.7828 15.3538 27.2862 16.5338 28.4662C17.7138 29.6462 19.2172 30.4498 20.8539 30.7754C22.4906 31.1009 24.1871 30.9338 25.7289 30.2952C27.2706 29.6566 28.5884 28.5752 29.5155 27.1876C30.4426 25.8001 30.9375 24.1688 30.9375 22.5C30.9352 20.263 30.0455 18.1182 28.4636 16.5364C26.8818 14.9545 24.737 14.0648 22.5 14.0625ZM22.5 26.7188C21.6656 26.7188 20.85 26.4713 20.1562 26.0078C19.4624 25.5442 18.9217 24.8853 18.6024 24.1144C18.2831 23.3436 18.1995 22.4953 18.3623 21.677C18.5251 20.8586 18.9269 20.1069 19.5169 19.5169C20.1069 18.9269 20.8586 18.5251 21.677 18.3623C22.4953 18.1995 23.3436 18.2831 24.1144 18.6024C24.8853 18.9217 25.5442 19.4624 26.0078 20.1562C26.4713 20.85 26.7188 21.6656 26.7188 22.5C26.7188 23.6189 26.2743 24.6919 25.4831 25.4831C24.6919 26.2743 23.6189 26.7188 22.5 26.7188ZM30.9375 3.51562H14.0625C11.2663 3.51888 8.58555 4.63111 6.60833 6.60833C4.63111 8.58555 3.51888 11.2663 3.51562 14.0625V30.9375C3.51888 33.7337 4.63111 36.4145 6.60833 38.3917C8.58555 40.3689 11.2663 41.4811 14.0625 41.4844H30.9375C33.7337 41.4811 36.4145 40.3689 38.3917 38.3917C40.3689 36.4145 41.4811 33.7337 41.4844 30.9375V14.0625C41.4811 11.2663 40.3689 8.58555 38.3917 6.60833C36.4145 4.63111 33.7337 3.51888 30.9375 3.51562ZM37.2656 30.9375C37.2656 32.6158 36.5989 34.2254 35.4122 35.4122C34.2254 36.5989 32.6158 37.2656 30.9375 37.2656H14.0625C12.3842 37.2656 10.7746 36.5989 9.58784 35.4122C8.40109 34.2254 7.73438 32.6158 7.73438 30.9375V14.0625C7.73438 12.3842 8.40109 10.7746 9.58784 9.58784C10.7746 8.40109 12.3842 7.73438 14.0625 7.73438H30.9375C32.6158 7.73438 34.2254 8.40109 35.4122 9.58784C36.5989 10.7746 37.2656 12.3842 37.2656 14.0625V30.9375ZM34.4531 13.3594C34.4531 13.9156 34.2882 14.4594 33.9791 14.9219C33.6701 15.3844 33.2308 15.7449 32.7169 15.9578C32.203 16.1707 31.6375 16.2264 31.0919 16.1178C30.5464 16.0093 30.0452 15.7414 29.6519 15.3481C29.2586 14.9548 28.9907 14.4536 28.8822 13.9081C28.7736 13.3625 28.8293 12.797 29.0422 12.2831C29.2551 11.7692 29.6156 11.3299 30.0781 11.0209C30.5406 10.7118 31.0844 10.5469 31.6406 10.5469C32.3865 10.5469 33.1019 10.8432 33.6294 11.3706C34.1568 11.8981 34.4531 12.6135 34.4531 13.3594Z" fill="white"/>
</svg>
