<svg version="1.1" id="Layer_1" xmlns="http://www.w3.org/2000/svg" xmlns:xlink="http://www.w3.org/1999/xlink" x="0px" y="0px"
	 width="100%" viewBox="0 0 1024 1024" enable-background="new 0 0 1024 1024" xml:space="preserve">
<path fill="#000000" opacity="1.000000" stroke="none" 
	d="
M557.006226,282.993469 
	C592.141724,318.113586 627.030457,352.980377 661.909851,387.856598 
	C670.627563,396.573517 679.313293,405.322479 688.017639,414.052765 
	C690.034790,416.075928 691.937195,418.153473 692.293884,421.179016 
	C692.846619,425.868225 691.684204,429.808899 687.337097,432.267242 
	C683.442810,434.469452 678.077332,433.773438 674.404053,430.238220 
	C667.921204,423.999084 661.648865,417.541626 655.259338,411.204803 
	C654.100586,410.055603 653.202332,408.550995 651.228333,408.022461 
	C649.727417,409.649811 650.338989,411.717468 650.336670,413.563873 
	C650.294983,447.061127 650.314087,480.558441 650.301880,514.055725 
	C650.297668,525.595276 646.766846,528.122437 635.171448,526.746765 
	C590.149414,521.405518 551.885925,501.290527 517.204590,473.286743 
	C513.975586,470.679413 512.124390,470.710052 508.849487,473.388733 
	C477.829041,498.762146 443.387604,517.298096 403.637360,524.873901 
	C398.584839,525.836853 393.468719,526.491333 388.364136,527.149902 
	C379.951569,528.235229 375.703278,524.338379 375.691223,515.390137 
	C375.645844,481.726227 375.667236,448.062225 375.663666,414.398285 
	C375.663452,412.447174 375.663635,410.496094 375.663635,407.783539 
	C371.452545,409.979401 369.122925,413.021301 366.449646,415.592041 
	C361.765930,420.096100 357.263763,424.788300 352.616058,429.330597 
	C347.510742,434.320160 340.905518,434.775635 336.631592,430.534668 
	C332.253662,426.190521 332.695648,419.828094 337.864441,414.661957 
	C378.638885,373.908173 419.437683,333.178772 460.216553,292.429443 
	C474.711548,277.944946 489.190033,263.443817 503.640778,248.915176 
	C510.566193,241.952438 516.001953,241.836227 522.892578,248.734070 
	C534.198792,260.052216 545.470032,271.405334 557.006226,282.993469 
M408.477112,373.977173 
	C404.947754,377.514801 401.536621,381.182068 397.848328,384.545410 
	C395.307587,386.862244 394.284058,389.401093 394.293945,392.861267 
	C394.396851,428.842560 394.354431,464.824310 394.376465,500.805908 
	C394.380157,506.805206 395.136353,507.333710 401.198486,506.022461 
	C440.331451,497.557831 473.378845,477.693756 503.059448,451.566223 
	C510.777710,444.771851 515.891724,444.789185 523.523560,451.570282 
	C552.843811,477.622009 585.535217,497.453369 624.336792,505.972046 
	C630.892090,507.411194 631.643494,506.956848 631.645020,500.315857 
	C631.653137,464.833954 631.581543,429.351776 631.726990,393.870483 
	C631.744751,389.534882 630.522400,386.379242 627.435730,383.308167 
	C590.356628,346.416321 553.392273,309.409180 516.382629,272.447449 
	C515.470642,271.536652 514.751465,270.298706 512.020142,269.985565 
	C478.033142,304.117493 443.502838,338.795044 408.477112,373.977173 
z"/>
<path fill="#000000" opacity="1.000000" stroke="none" 
	d="
M297.966980,623.137756 
	C301.264557,630.382141 303.599121,637.671753 307.564484,644.137695 
	C310.322784,643.583679 310.402588,641.483643 311.033112,639.897461 
	C318.534302,621.025635 326.060669,602.163208 333.398163,583.227661 
	C334.653717,579.987488 336.239227,578.465515 339.896057,578.595886 
	C347.383240,578.862854 354.886322,578.656738 362.381989,578.732361 
	C363.922089,578.747864 366.068420,578.320251 366.059113,580.892212 
	C366.050446,583.292175 364.055878,583.086975 362.427124,583.292419 
	C355.013702,584.227539 352.863190,586.273315 353.435516,593.570557 
	C354.629486,608.794861 356.172668,623.994324 357.764771,639.183777 
	C358.490723,646.109497 358.743195,653.100281 360.342102,659.927185 
	C361.889557,666.534546 363.974243,668.587097 370.591461,669.646545 
	C372.180237,669.900940 374.269531,669.556763 374.030426,672.111084 
	C373.837097,674.176453 372.004822,674.073914 370.561432,674.080017 
	C357.568542,674.134521 344.575470,674.138489 331.582428,674.137878 
	C329.978821,674.137817 328.461975,673.800232 328.485291,671.757019 
	C328.505829,669.956482 329.935608,669.914978 331.301117,669.650269 
	C339.047699,668.148560 341.097595,666.073486 340.613190,658.258850 
	C339.523499,640.679016 338.011414,623.125244 336.634094,605.563721 
	C336.559448,604.611877 336.144958,603.686646 335.456268,601.167358 
	C332.740051,607.312805 330.473846,612.144958 328.448395,617.075989 
	C321.237885,634.629944 314.116241,652.220398 306.940063,669.788513 
	C306.139130,671.749268 305.651947,674.020874 302.785461,674.104919 
	C299.586884,674.198608 299.174744,671.580261 298.287872,669.545959 
	C289.440491,649.251465 280.655090,628.929871 271.819000,608.630432 
	C270.854736,606.415222 270.213104,603.970459 267.722565,601.761780 
	C267.225281,605.570740 266.412872,608.802490 266.449036,612.024719 
	C266.622925,627.517944 264.783417,642.953369 265.287659,658.454468 
	C265.530792,665.927734 266.594238,667.567871 273.827881,669.692688 
	C275.027771,670.045105 276.119080,670.269226 276.106995,671.791321 
	C276.092896,673.567078 274.841858,674.044373 273.421326,674.051147 
	C263.928101,674.096375 254.434570,674.105286 244.941254,674.079041 
	C243.457184,674.074951 242.285843,673.377014 242.343063,671.701721 
	C242.392380,670.257935 243.543808,669.982300 244.770493,669.710144 
	C254.939926,667.453430 256.091919,665.725708 256.754822,655.465515 
	C258.115570,634.405701 259.734070,613.361816 261.356354,592.319885 
	C261.778229,586.847717 259.667603,584.027405 254.013519,583.266052 
	C252.276825,583.032166 249.837921,583.397339 250.026123,580.705261 
	C250.216095,577.988037 252.720032,578.747803 254.372269,578.723206 
	C261.034210,578.623901 267.706177,578.866943 274.358704,578.596924 
	C277.803864,578.457092 279.394867,579.884460 280.653809,582.875732 
	C286.271790,596.224121 292.074982,609.494629 297.966980,623.137756 
z"/>
<path fill="#000000" opacity="1.000000" stroke="none" 
	d="
M538.913025,674.233765 
	C525.602905,674.206726 512.780579,674.179504 499.958313,674.142212 
	C498.793762,674.138794 497.624481,674.124634 496.466309,674.018250 
	C495.238220,673.905457 494.140808,673.472168 494.034576,672.015991 
	C493.928040,670.555420 494.896576,670.115601 496.150909,669.759766 
	C506.457916,666.834717 507.590027,665.406250 507.618744,654.670837 
	C507.670898,635.187317 507.659882,615.703430 507.624146,596.219788 
	C507.607513,587.146606 505.994202,585.240112 496.887177,583.213257 
	C495.334229,582.867493 493.791565,582.493042 494.044495,580.494568 
	C494.267517,578.732056 495.846893,578.704529 497.160492,578.732727 
	C514.951965,579.114746 532.800659,577.474670 550.528442,579.603882 
	C561.337830,580.902100 568.433228,587.298401 570.297791,596.011902 
	C572.391663,605.796875 568.839783,613.482483 559.219177,619.962402 
	C558.133545,620.693604 556.659912,621.219299 557.051025,622.909180 
	C557.415649,624.484680 558.979004,624.593933 560.210022,624.981079 
	C569.471619,627.893250 575.844421,633.349243 577.664490,643.454590 
	C579.270874,652.373474 575.961182,661.397522 568.408569,666.591431 
	C559.673035,672.598877 549.623657,673.783020 538.913025,674.233765 
M551.068787,633.384888 
	C544.852661,629.272339 537.936951,627.957214 530.618774,628.321472 
	C527.898376,628.456848 525.424316,629.332031 525.462830,632.532715 
	C525.582642,642.490967 524.467834,652.487427 526.337463,662.400757 
	C527.020691,666.023621 529.411560,667.881165 532.717712,668.538452 
	C541.518677,670.287964 551.377563,666.067993 555.260010,659.072449 
	C559.853394,650.795959 558.428650,640.862305 551.068787,633.384888 
M541.417664,619.130920 
	C549.826172,616.103943 553.276917,605.664124 551.190552,597.355347 
	C549.054199,588.847412 540.571533,583.563293 531.156250,584.373413 
	C528.119385,584.634705 525.414062,585.385803 525.396545,589.176514 
	C525.351990,598.839294 525.393555,608.502380 525.365540,618.165283 
	C525.357178,621.048706 526.941956,621.721741 529.529541,621.809082 
	C533.493774,621.942871 536.976929,620.187439 541.417664,619.130920 
z"/>
<path fill="#000000" opacity="1.000000" stroke="none" 
	d="
M402.507874,586.436951 
	C423.929871,570.726562 457.794403,574.848206 473.325439,595.749023 
	C491.760437,620.557861 485.968781,665.138062 443.547485,674.177734 
	C423.234558,678.506226 404.929749,673.677429 391.474701,656.914185 
	C376.606476,638.390198 379.249756,608.437317 396.608887,591.618103 
	C398.400848,589.881897 400.346863,588.304688 402.507874,586.436951 
M448.731506,589.744080 
	C435.543915,578.495361 417.640930,581.272156 409.439911,596.237488 
	C399.115814,615.077148 399.300293,634.992981 408.911469,654.137817 
	C414.298462,664.868347 423.763275,670.918579 436.282532,669.512146 
	C448.157990,668.177979 454.953308,660.273743 459.132355,649.678406 
	C461.236633,644.343384 462.094696,638.734924 462.350433,633.094604 
	C463.066833,617.294067 461.653961,602.055603 448.731506,589.744080 
z"/>
<path fill="#000000" opacity="1.000000" stroke="none" 
	d="
M633.566284,738.448608 
	C640.575500,746.158081 646.631897,754.276978 653.997070,761.112366 
	C656.119324,759.558289 655.660645,757.762390 655.666077,756.179016 
	C655.703735,745.180786 655.723755,734.182068 655.647583,723.184204 
	C655.601685,716.558899 654.387024,715.097534 647.853577,712.990417 
	C646.637329,712.598145 644.961426,712.499451 645.043335,710.718506 
	C645.142761,708.556213 647.006592,708.758972 648.431274,708.747498 
	C655.095703,708.693848 661.761108,708.691406 668.425293,708.760193 
	C669.812378,708.774475 671.715515,708.399414 671.934998,710.565674 
	C672.122009,712.412598 670.358398,712.666931 669.192200,712.864807 
	C664.939331,713.586060 663.468323,716.442139 663.082947,720.253174 
	C662.815552,722.897949 662.403320,725.547424 662.394104,728.195923 
	C662.329956,746.692871 662.381714,765.190247 662.306702,783.687134 
	C662.299316,785.511658 663.294983,788.083740 660.676270,788.868530 
	C658.395569,789.552185 657.114868,787.460754 655.830139,785.983215 
	C641.180481,769.133911 626.557739,752.261230 611.929199,735.393677 
	C611.165100,734.512634 610.458008,733.577271 609.644409,732.745361 
	C608.606262,731.683838 607.534973,730.296570 605.859253,730.824768 
	C603.994934,731.412354 604.374878,733.252197 604.406799,734.677185 
	C604.712036,748.319275 603.510620,761.984924 605.219360,775.610901 
	C605.760071,779.922363 607.500366,782.838257 611.943481,783.677368 
	C613.324646,783.938293 614.759033,784.279541 614.701477,785.962280 
	C614.631531,788.009766 612.915283,788.098389 611.387878,788.101135 
	C604.722656,788.113098 598.057312,788.107361 591.392456,788.050537 
	C589.900452,788.037842 588.133728,788.000671 588.072510,785.918762 
	C588.021240,784.175171 589.536316,783.946533 590.883301,783.723022 
	C595.799377,782.907227 597.505920,779.243835 597.554260,775.046631 
	C597.750122,758.052246 597.778198,741.052734 597.568298,724.058777 
	C597.502258,718.712708 593.946655,715.341309 589.278809,713.124939 
	C588.127075,712.578003 586.497192,712.325684 586.706543,710.543396 
	C586.963135,708.358765 588.821472,708.760803 590.222839,708.740906 
	C595.221008,708.669861 600.222778,708.788574 605.218750,708.660034 
	C607.673096,708.596924 609.232910,709.746033 610.709656,711.499695 
	C618.220703,720.419006 625.793091,729.286499 633.566284,738.448608 
z"/>
<path fill="#000000" opacity="1.000000" stroke="none" 
	d="
M664.071838,613.000000 
	C663.990417,605.841370 664.057861,599.176331 663.777588,592.526001 
	C663.521790,586.456177 661.319397,584.253235 655.394775,583.343994 
	C653.512024,583.054993 650.797852,583.443359 651.068176,580.530945 
	C651.309998,577.926453 653.895020,578.733032 655.546387,578.723083 
	C667.701111,578.649902 679.856567,578.662109 692.011414,578.725281 
	C693.532654,578.733154 695.791870,578.144653 696.011047,580.535461 
	C696.259338,583.243958 693.853577,582.986511 692.119751,583.213013 
	C684.796326,584.169617 682.457153,586.462341 682.420044,593.797485 
	C682.310486,615.443359 682.321167,637.090332 682.416809,658.736328 
	C682.447510,665.682068 684.856873,667.536438 691.903198,667.932800 
	C705.893250,668.719727 715.390869,662.289612 721.680176,650.252869 
	C722.549438,648.589172 723.022156,645.971802 725.782654,647.001160 
	C728.329651,647.951050 726.871033,650.053772 726.567688,651.718323 
	C725.495789,657.599304 724.271118,663.455322 723.340332,669.358032 
	C722.820007,672.657776 721.513123,674.309326 717.872803,674.284058 
	C697.060181,674.139709 676.246216,674.176880 655.432922,674.109375 
	C653.692810,674.103699 651.268250,674.515869 651.147583,671.922241 
	C651.015808,669.090515 653.595947,669.886536 655.245239,669.641296 
	C661.131104,668.765991 663.632263,666.113037 663.711609,659.950684 
	C663.910889,644.468140 663.959900,628.983704 664.071838,613.000000 
z"/>
<path fill="#000000" opacity="1.000000" stroke="none" 
	d="
M488.085999,758.071899 
	C484.130249,762.250610 485.450470,767.136963 485.395905,771.682739 
	C485.255127,783.411865 485.367096,783.482300 474.016388,786.449707 
	C460.924591,789.872192 447.741943,791.610046 434.977875,785.463257 
	C421.674133,779.056702 414.796448,768.033630 413.700348,753.431458 
	C412.724823,740.435486 415.507721,728.672119 425.120514,719.071167 
	C432.590546,711.610291 441.514801,708.010742 451.944427,707.644958 
	C461.665222,707.304016 471.207397,707.988892 480.444916,711.417908 
	C483.157410,712.424744 484.443146,713.774475 484.418396,716.825562 
	C484.388947,720.464844 485.072266,724.104309 485.250458,727.753357 
	C485.325134,729.283447 485.866089,731.394226 483.530426,731.844604 
	C481.422089,732.251099 480.676147,730.483826 480.034149,728.939026 
	C477.862335,723.712952 474.492828,719.445740 469.765076,716.358276 
	C457.677948,708.464905 442.584473,712.162537 435.278564,724.731323 
	C427.105835,738.791260 428.974701,762.695618 439.186554,774.772217 
	C446.026825,782.861633 455.062958,784.580017 464.957001,783.442566 
	C467.868744,783.107849 469.756134,781.315491 469.719299,778.024780 
	C469.672729,773.860413 469.790741,769.694153 469.738281,765.529907 
	C469.657990,759.150391 467.933350,757.246033 461.739319,756.364807 
	C460.243866,756.152039 457.918854,756.903870 457.946533,754.341736 
	C457.975464,751.665833 460.335693,752.661194 461.784424,752.545654 
	C471.430145,751.776550 481.090088,751.848145 490.741150,752.403259 
	C492.221405,752.488464 494.588318,751.645447 494.967285,753.924316 
	C495.436737,756.747559 492.676971,756.072388 491.149261,756.684326 
	C490.224243,757.054810 489.308899,757.449402 488.085999,758.071899 
z"/>
<path fill="#000000" opacity="1.000000" stroke="none" 
	d="
M369.524017,782.655701 
	C373.457581,782.606140 377.014679,782.940857 380.436493,782.407410 
	C388.305634,781.180603 393.559723,776.413086 396.849884,769.263367 
	C397.558228,767.724121 398.026581,765.220642 400.485016,766.004211 
	C403.162537,766.857544 401.459564,769.200989 401.262634,770.745605 
	C400.696442,775.186401 399.707367,779.571350 398.989502,783.995300 
	C398.474640,787.168579 396.856964,788.312988 393.547699,788.278137 
	C376.560425,788.098816 359.570679,788.152954 342.581818,788.116638 
	C341.584045,788.114502 340.579437,788.093079 339.590576,787.975098 
	C338.406647,787.833801 337.173248,787.545593 337.106293,786.051453 
	C337.041077,784.596741 338.160736,784.195374 339.351044,783.843018 
	C347.185455,781.523682 347.634003,780.962158 347.649078,772.963135 
	C347.676056,758.638794 347.623138,744.314148 347.670959,729.989929 
	C347.698517,721.743713 349.105865,712.807922 337.191071,711.832275 
	C337.229248,708.258789 339.476105,708.769043 341.141022,708.761414 
	C357.796387,708.684814 374.452362,708.722961 391.107269,708.603149 
	C393.979828,708.582520 395.345490,709.672791 395.808502,712.455872 
	C396.625793,717.368652 397.526459,722.263489 397.639435,727.345581 
	C395.111877,729.312439 393.771240,727.815674 392.729706,725.617737 
	C386.316406,712.084167 380.207947,714.063904 367.425873,714.733337 
	C364.357910,714.894104 362.385651,717.132507 362.393829,720.554138 
	C362.409332,727.049866 362.382080,733.545593 362.411469,740.041199 
	C362.418488,741.590698 362.786285,742.940735 364.442413,743.703735 
	C370.792023,746.628662 381.484009,742.651184 384.142700,736.331848 
	C384.695709,735.017395 384.862396,733.258240 387.018585,733.525391 
	C388.421844,734.068176 388.287842,735.340454 388.291809,736.466614 
	C388.316406,743.462036 388.325256,750.457825 388.271729,757.453003 
	C388.260895,758.868591 388.566589,760.733643 386.392029,760.892456 
	C384.702362,761.015808 384.360260,759.488281 383.869202,758.256042 
	C381.118561,751.354797 372.789154,747.504639 365.648804,749.722900 
	C363.364624,750.432495 362.425690,751.922180 362.420227,754.156189 
	C362.402008,761.651245 362.235718,769.151672 362.473541,776.639038 
	C362.597778,780.550842 365.162140,782.532288 369.524017,782.655701 
z"/>
<path fill="#000000" opacity="1.000000" stroke="none" 
	d="
M795.349426,736.756348 
	C795.427917,743.895996 796.776184,744.990051 803.337158,744.388489 
	C809.722900,743.802795 815.806458,743.049744 817.240295,735.094849 
	C817.414978,734.125671 818.237732,733.309875 819.435364,733.449280 
	C820.631592,733.588501 821.130310,734.478638 821.128235,735.553345 
	C821.113831,743.214661 821.067993,750.876099 820.998718,758.537170 
	C820.989319,759.578125 820.614441,760.598206 819.492188,760.868164 
	C818.115234,761.199402 817.156921,760.382141 816.886841,759.140137 
	C814.780273,749.452515 807.180298,749.562195 799.695557,749.374023 
	C796.794556,749.301147 795.353271,750.567444 795.363586,753.515015 
	C795.391113,761.346130 795.309814,769.178223 795.415100,777.008057 
	C795.463806,780.627075 797.661133,782.315186 801.163452,782.612061 
	C813.867798,783.688660 824.917786,781.568848 830.115051,767.888794 
	C830.618286,766.564087 831.444641,765.438904 833.081726,765.862915 
	C834.932373,766.342224 834.510681,767.942017 834.292542,769.171631 
	C833.364746,774.402100 832.230225,779.596863 831.356750,784.835632 
	C830.943665,787.313538 829.632263,788.202759 827.280029,788.194458 
	C809.451965,788.131714 791.623718,788.113464 773.795715,788.035706 
	C772.189148,788.028687 770.059143,788.177429 770.098450,785.784973 
	C770.131653,783.764221 772.077637,783.793945 773.528320,783.734680 
	C778.880920,783.515869 780.382568,779.538513 780.433777,775.502014 
	C780.661987,757.513000 780.582214,739.517517 780.367188,721.527283 
	C780.313416,717.030579 778.321289,713.502625 773.086304,712.912720 
	C771.725464,712.759399 769.786987,712.375732 770.129456,710.291626 
	C770.411255,708.576294 772.101868,708.751892 773.391907,708.749268 
	C790.387146,708.714783 807.382385,708.720520 824.377686,708.692383 
	C826.730530,708.688477 828.036926,709.537659 828.333374,712.097595 
	C828.810181,716.214966 829.681396,720.285522 830.213318,724.398193 
	C830.387451,725.744751 831.012390,727.611511 828.929565,728.173767 
	C827.161194,728.651062 826.263611,727.537354 825.572266,725.977478 
	C819.230896,711.669922 812.394836,714.304749 799.527283,714.584351 
	C796.610596,714.647766 795.314697,716.830688 795.347961,719.796082 
	C795.409607,725.293945 795.355347,730.793152 795.349426,736.756348 
z"/>
<path fill="#000000" opacity="1.000000" stroke="none" 
	d="
M197.956360,780.806152 
	C199.361984,777.842224 199.683304,775.080505 199.674026,772.204285 
	C199.625122,757.050598 199.533722,741.895447 199.704117,726.743530 
	C199.785736,719.486755 198.799942,713.300598 190.032440,711.985229 
	C189.680801,711.932495 189.414307,711.312134 189.114883,710.963989 
	C189.601181,708.172668 191.782928,708.764343 193.444534,708.756775 
	C209.763306,708.682556 226.082718,708.728760 242.401093,708.614685 
	C245.594070,708.592407 247.211853,709.420654 247.532425,712.979248 
	C247.973419,717.874634 249.526367,722.664734 249.225998,727.582886 
	C246.498413,728.999573 245.489349,727.669373 244.447510,725.597900 
	C238.969742,714.706421 229.762146,711.095215 217.754868,714.858704 
	C215.691559,715.505371 214.579178,716.752625 214.548721,718.765137 
	C214.437851,726.089111 214.435898,733.414795 214.419312,740.739868 
	C214.415527,742.410583 215.261627,743.514404 216.819550,744.175720 
	C222.961151,746.782532 233.701447,742.390991 236.231369,736.207458 
	C236.717682,735.018860 236.847519,733.352661 238.658737,733.554626 
	C240.518646,733.762024 240.288849,735.394104 240.292923,736.676270 
	C240.315170,743.670044 240.306686,750.664124 240.264359,757.657776 
	C240.256470,758.962036 240.342957,760.550110 238.558304,760.791077 
	C236.812622,761.026794 236.485718,759.458191 235.964890,758.263245 
	C232.958511,751.366333 224.054214,747.399658 216.655762,749.521667 
	C214.775101,750.061157 214.396179,751.243774 214.396118,752.850952 
	C214.395844,760.843811 214.341263,768.837524 214.448425,776.829041 
	C214.481598,779.302917 215.571381,781.900146 218.139404,782.157410 
	C226.229080,782.967896 234.477676,783.981323 241.761383,778.838623 
	C245.535965,776.173706 248.218719,772.647095 249.823914,768.289368 
	C250.355240,766.846741 251.134460,765.344666 253.057495,766.045593 
	C254.753830,766.663879 254.225082,768.229370 253.982803,769.483276 
	C253.006287,774.536743 251.955841,779.575867 250.948059,784.623291 
	C250.452560,787.105103 249.083801,788.222778 246.436859,788.207886 
	C228.619797,788.107422 210.802109,788.120544 192.984818,788.050537 
	C191.382919,788.044250 189.250214,788.212891 189.231735,785.847839 
	C189.216141,783.853210 191.109085,783.795898 192.594681,783.717957 
	C194.715866,783.606567 196.480362,782.898743 197.956360,780.806152 
z"/>
<path fill="#000000" opacity="1.000000" stroke="none" 
	d="
M605.635132,635.000000 
	C605.619446,621.673767 605.707397,608.846375 605.557983,596.021729 
	C605.465515,588.077698 603.296997,584.693848 598.134033,583.519409 
	C597.328491,583.336182 596.478821,583.355286 595.654968,583.241699 
	C594.124695,583.030762 592.508057,582.775085 592.567505,580.739197 
	C592.631897,578.536682 594.423462,578.711670 595.882690,578.705688 
	C605.543762,578.666199 615.205078,578.670166 624.866272,578.665466 
	C627.864502,578.664062 630.863831,578.634277 633.860474,578.707581 
	C635.340820,578.743774 637.082520,578.703735 637.022766,580.916504 
	C636.976624,582.623596 635.633728,582.913391 634.261230,583.209229 
	C624.950378,585.216431 624.123291,586.023560 624.097717,595.251343 
	C624.038696,616.571716 624.081421,637.893005 624.228455,659.212891 
	C624.279175,666.566528 626.169983,668.482117 633.483032,669.643555 
	C635.079529,669.897095 637.190857,669.578918 636.990845,672.072327 
	C636.801697,674.430298 634.700928,674.158020 633.120789,674.162903 
	C620.794617,674.200867 608.468201,674.182434 596.142029,674.143677 
	C594.517395,674.138611 592.505005,674.352234 592.460022,671.901062 
	C592.421448,669.801392 594.150330,669.877319 595.664917,669.657166 
	C603.205750,668.561462 605.400452,666.094727 605.582397,657.986816 
	C605.750549,650.494629 605.631287,642.995850 605.635132,635.000000 
z"/>
<path fill="#000000" opacity="1.000000" stroke="none" 
	d="
M746.056763,674.218506 
	C743.070984,674.151001 740.573242,674.119873 738.078613,674.015930 
	C736.586243,673.953735 735.447632,673.307434 735.472595,671.632812 
	C735.495117,670.122437 736.664307,669.938049 737.888184,669.697571 
	C747.799866,667.749634 748.668396,666.662842 748.668396,656.606689 
	C748.668457,636.128662 748.692261,615.650635 748.672241,595.172607 
	C748.663879,586.686646 747.111755,584.875000 738.663025,583.253479 
	C737.173645,582.967590 735.411560,582.854065 735.403870,580.889709 
	C735.394287,578.397217 737.495911,578.707275 739.085205,578.703491 
	C751.571533,578.674194 764.058167,578.680542 776.544434,578.729614 
	C777.953613,578.735168 779.862915,578.431091 780.014709,580.589355 
	C780.180420,582.944214 778.221008,582.977112 776.575562,583.259583 
	C769.177124,584.529846 767.360474,586.606506 767.346069,594.198608 
	C767.305603,615.508972 767.307434,636.819519 767.335022,658.129944 
	C767.345459,666.214661 769.121216,668.265259 777.142700,669.681519 
	C778.466858,669.915283 780.017517,669.852234 780.059509,671.671082 
	C780.115906,674.112061 778.142029,674.089539 776.512512,674.102722 
	C766.523987,674.183411 756.534973,674.191772 746.056763,674.218506 
z"/>
<path fill="#000000" opacity="1.000000" stroke="none" 
	d="
M560.004639,788.155518 
	C555.512573,788.113586 551.518555,788.102173 547.526306,788.012695 
	C546.088623,787.980469 544.830933,787.494141 544.914124,785.719116 
	C544.983948,784.229553 546.155884,784.015503 547.348572,783.730652 
	C554.658936,781.984375 554.788330,781.912048 552.013672,774.949829 
	C545.440613,758.456848 550.220947,761.556702 532.285583,761.311401 
	C520.748169,761.153625 520.743286,761.317749 516.954590,772.419861 
	C516.578918,773.520569 516.253052,774.638550 515.915466,775.752014 
	C514.652344,779.919189 515.216919,783.078186 520.331421,783.699280 
	C521.722839,783.868286 523.066467,784.142883 523.037720,785.937866 
	C523.008484,787.761230 521.592590,788.038147 520.230957,788.047974 
	C513.741516,788.094788 507.251404,788.090332 500.761871,788.049377 
	C499.574768,788.041870 498.355804,787.717346 498.055756,786.327515 
	C497.753662,784.928040 498.557343,784.088623 499.864990,783.836304 
	C504.239929,782.992004 505.933899,779.554504 507.543793,776.018616 
	C516.784912,755.721436 524.151917,734.665710 532.622620,714.056702 
	C532.748962,713.749146 532.825867,713.418213 532.976868,713.124329 
	C534.201233,710.741455 534.391052,707.667908 538.380615,707.595947 
	C542.663635,707.518738 543.054138,710.796631 544.093567,713.381470 
	C551.229553,731.127197 558.233582,748.926086 565.296021,766.701416 
	C566.524170,769.792542 567.794189,772.868103 569.105774,775.924683 
	C570.729736,779.709412 572.793030,783.057312 577.374207,783.750122 
	C578.672058,783.946411 579.578613,784.677795 579.447754,786.082336 
	C579.282593,787.855286 577.816223,788.034729 576.479614,788.053955 
	C571.154846,788.130554 565.828918,788.128235 560.004639,788.155518 
M530.597717,736.136780 
	C528.937622,740.484619 527.190796,744.801880 525.644409,749.189819 
	C524.373108,752.796997 525.404785,755.085510 529.635315,755.069641 
	C533.126831,755.056580 536.619324,755.068726 540.109619,754.992615 
	C542.971863,754.930237 544.015442,753.612000 542.914856,750.786804 
	C540.743286,745.212769 538.694641,739.590332 536.474365,734.036194 
	C535.971313,732.777832 535.831909,730.957703 533.643066,730.903503 
	C532.171021,732.033447 531.710388,733.860107 530.597717,736.136780 
z"/>
<path fill="#000000" opacity="1.000000" stroke="none" 
	d="
M713.551636,746.121338 
	C713.415955,737.045105 713.231750,728.406982 713.171204,719.767883 
	C713.143250,715.770691 711.355591,714.278381 707.331421,714.252075 
	C697.093445,714.185120 692.540894,717.222351 688.813171,727.244934 
	C688.305664,728.609497 688.050110,730.455933 685.988708,730.055298 
	C683.791138,729.628174 684.574707,727.733948 684.634827,726.366028 
	C684.839233,721.720093 684.562500,717.066406 685.412170,712.425842 
	C685.896545,709.780457 686.974121,708.706299 689.628113,708.711731 
	C711.269226,708.756165 732.910461,708.753479 754.551636,708.715881 
	C757.341614,708.711060 758.425232,709.984680 758.347595,712.674133 
	C758.208374,717.499146 758.190674,722.327515 758.081909,727.153564 
	C758.051819,728.486816 758.020813,730.018005 756.279297,730.255737 
	C754.224670,730.536194 753.917969,729.000244 753.643372,727.417053 
	C751.865356,717.169739 742.551147,713.354675 732.142883,714.460144 
	C729.645142,714.725342 728.307983,716.303345 728.309509,718.869995 
	C728.321533,738.513794 728.243958,758.158630 728.440186,777.800659 
	C728.479248,781.709900 731.360352,783.499390 735.195679,783.696350 
	C736.814270,783.779480 738.939941,783.612671 738.919617,785.960205 
	C738.898926,788.345947 736.716125,788.105408 735.139832,788.112732 
	C725.651367,788.156860 716.162476,788.134827 706.674011,788.077209 
	C705.233093,788.068481 703.320679,788.236755 703.089539,786.249817 
	C702.808044,783.830383 704.847717,783.801208 706.505371,783.711609 
	C711.114136,783.462402 712.879944,780.744934 712.962402,776.479736 
	C713.155151,766.506104 713.356018,756.532532 713.551636,746.121338 
z"/>
<path fill="#000000" opacity="1.000000" stroke="none" 
	d="
M275.789673,771.865356 
	C275.790833,755.070374 275.714386,738.756104 275.815002,722.442993 
	C275.846924,717.265259 274.336975,713.665894 268.612183,712.991882 
	C267.161407,712.821045 265.363800,712.494141 265.757751,710.363831 
	C266.074341,708.651855 267.681030,708.749084 268.994446,708.745911 
	C278.649597,708.722534 288.304871,708.717590 297.959961,708.752563 
	C299.413635,708.757812 301.254028,708.589722 301.325165,710.748657 
	C301.394470,712.853577 299.502045,712.979187 298.105438,713.080688 
	C293.057739,713.447388 291.249359,716.326050 291.262115,721.059875 
	C291.311523,739.371460 291.321716,757.683350 291.246246,775.994751 
	C291.226746,780.722168 293.690308,782.436340 298.033783,782.692322 
	C308.936218,783.334961 317.014862,778.954102 322.425507,769.477600 
	C323.245148,768.042053 323.671234,765.312805 326.087463,766.358765 
	C328.286041,767.310547 326.925110,769.535095 326.610657,771.241455 
	C325.829315,775.480835 324.955383,779.705017 324.270844,783.959839 
	C323.795380,786.915405 322.337524,788.250671 319.250519,788.230469 
	C302.936981,788.123657 286.622589,788.153259 270.308960,788.058044 
	C268.641144,788.048340 266.140991,788.629578 266.054138,785.920105 
	C265.978699,783.566284 268.278076,784.000000 269.819275,783.670471 
	C274.765808,782.612915 275.600189,781.014709 275.789673,771.865356 
z"/>
<path fill="#000000" opacity="1.000000" stroke="none" 
	d="
M517.652710,408.937195 
	C517.657532,402.622253 517.745056,396.799683 517.633179,390.980957 
	C517.576294,388.020721 518.741638,386.756134 521.729858,386.795135 
	C528.547485,386.884186 535.367310,386.855835 542.185669,386.800568 
	C544.808411,386.779327 546.218384,387.711823 546.191467,390.558777 
	C546.122375,397.875732 546.124023,405.194305 546.202515,412.511139 
	C546.232056,415.261292 545.083435,416.398224 542.336426,416.360413 
	C536.350342,416.278015 530.362183,416.354614 524.374878,416.348083 
	C517.713318,416.340820 517.713318,416.332001 517.652710,408.937195 
z"/>
<path fill="#000000" opacity="1.000000" stroke="none" 
	d="
M497.963562,386.838196 
	C509.797028,386.800476 508.164307,385.904449 508.287506,396.723450 
	C508.346344,401.888672 508.193756,407.057159 508.306061,412.220520 
	C508.370422,415.180695 507.239594,416.426056 504.209229,416.372009 
	C497.378967,416.250153 490.543518,416.248718 483.713348,416.373383 
	C480.691467,416.428528 479.575897,415.231476 479.626678,412.242767 
	C479.745544,405.245789 479.746338,398.243378 479.605957,391.246979 
	C479.541931,388.057159 480.738678,386.675323 483.973816,386.774628 
	C488.469299,386.912659 492.971558,386.830017 497.963562,386.838196 
z"/>
<path fill="#000000" opacity="1.000000" stroke="none" 
	d="
M531.005066,377.339905 
	C517.660950,377.340332 517.524353,377.338226 517.721741,364.578613 
	C517.800110,359.513428 515.411621,353.105713 518.887451,349.727936 
	C522.119080,346.587463 528.403809,348.776978 533.333618,348.724182 
	C546.228699,348.586090 546.230652,348.680298 546.215942,361.411255 
	C546.211853,364.898712 545.946045,368.408813 546.254822,371.867981 
	C546.659424,376.400848 544.695190,377.778046 540.465942,377.394012 
	C537.500977,377.124756 534.492188,377.339264 531.005066,377.339905 
z"/>
<path fill="#000000" opacity="1.000000" stroke="none" 
	d="
M501.902771,348.676025 
	C506.917084,347.998566 508.624695,349.830811 508.367554,354.472382 
	C508.027374,360.612061 508.194611,366.786072 508.309326,372.942230 
	C508.367920,376.087921 507.213165,377.456116 503.940277,377.384155 
	C497.285919,377.237854 490.623352,377.239136 483.969360,377.397675 
	C480.708984,377.475372 479.563263,376.174683 479.624573,372.993744 
	C479.756073,366.172333 479.708954,359.345520 479.612671,352.522644 
	C479.573944,349.775848 480.674438,348.623413 483.440521,348.663940 
	C489.431030,348.751709 495.423828,348.681976 501.902771,348.676025 
z"/>
</svg>