<svg xmlns="http://www.w3.org/2000/svg" width="24" height="24" viewBox="0 0 24 24" fill="none">
  <path d="M13.281 12.5306L5.78104 20.0306C5.64031 20.1713 5.44944 20.2503 5.25042 20.2503C5.05139 20.2503 4.86052 20.1713 4.71979 20.0306C4.57906 19.8898 4.5 19.699 4.5 19.4999C4.5 19.3009 4.57906 19.11 4.71979 18.9693L11.6901 11.9999L4.71979 5.03055C4.57906 4.88982 4.5 4.69895 4.5 4.49993C4.5 4.30091 4.57906 4.11003 4.71979 3.9693C4.86052 3.82857 5.05139 3.74951 5.25042 3.74951C5.44944 3.74951 5.64031 3.82857 5.78104 3.9693L13.281 11.4693C13.3508 11.539 13.4061 11.6217 13.4438 11.7127C13.4816 11.8038 13.501 11.9014 13.501 11.9999C13.501 12.0985 13.4816 12.1961 13.4438 12.2871C13.4061 12.3782 13.3508 12.4609 13.281 12.5306ZM20.781 11.4693L13.281 3.9693C13.1403 3.82857 12.9494 3.74951 12.7504 3.74951C12.5514 3.74951 12.3605 3.82857 12.2198 3.9693C12.0791 4.11003 12 4.30091 12 4.49993C12 4.69895 12.0791 4.88982 12.2198 5.03055L19.1901 11.9999L12.2198 18.9693C12.0791 19.11 12 19.3009 12 19.4999C12 19.699 12.0791 19.8898 12.2198 20.0306C12.3605 20.1713 12.5514 20.2503 12.7504 20.2503C12.9494 20.2503 13.1403 20.1713 13.281 20.0306L20.781 12.5306C20.8508 12.4609 20.9061 12.3782 20.9438 12.2871C20.9816 12.1961 21.001 12.0985 21.001 11.9999C21.001 11.9014 20.9816 11.8038 20.9438 11.7127C20.9061 11.6217 20.8508 11.539 20.781 11.4693Z" fill="#B78D58"/>
</svg>