<svg width="37" height="37" viewBox="0 0 37 37" fill="none" xmlns="http://www.w3.org/2000/svg">
<g id="PencilLine">
<path id="Vector" d="M33.2639 10.1952L26.8048 3.73757C26.2627 3.19566 25.5276 2.89124 24.7611 2.89124C23.9946 2.89124 23.2595 3.19566 22.7174 3.73757L4.89384 21.5597C4.6245 21.8274 4.41095 22.1459 4.26557 22.4967C4.12019 22.8475 4.04586 23.2237 4.04689 23.6034V30.0625C4.04689 30.8291 4.35143 31.5644 4.89353 32.1065C5.43563 32.6486 6.17087 32.9531 6.93751 32.9531H31.2188C31.6787 32.9531 32.1199 32.7704 32.4451 32.4451C32.7704 32.1199 32.9531 31.6787 32.9531 31.2187C32.9531 30.7588 32.7704 30.3176 32.4451 29.9924C32.1199 29.6671 31.6787 29.4844 31.2188 29.4844H18.0664L33.2639 14.284C33.5324 14.0156 33.7454 13.6969 33.8908 13.3461C34.0361 12.9953 34.1109 12.6193 34.1109 12.2396C34.1109 11.8599 34.0361 11.4839 33.8908 11.1332C33.7454 10.7824 33.5324 10.4637 33.2639 10.1952ZM19.6563 11.707L21.2461 13.2969L10.9844 23.5586L9.39454 21.9687L19.6563 11.707ZM7.51564 29.4844V25.0039L9.75876 27.2456L11.9961 29.4844H7.51564ZM15.0313 27.6055L13.4414 26.0156L23.7031 15.7539L25.293 17.3437L15.0313 27.6055ZM27.75 14.8867L22.1133 9.24999L24.764 6.59929L30.4007 12.236L27.75 14.8867Z" fill="#1F3A5F"/>
</g>
</svg>
