<svg xmlns="http://www.w3.org/2000/svg" width="26" height="26" viewBox="0 0 26 26" fill="none">
  <path d="M23.5503 17.7816C23.3692 19.1578 22.6934 20.421 21.649 21.3353C20.6046 22.2497 19.2631 22.7525 17.875 22.75C9.81095 22.75 3.25001 16.1891 3.25001 8.12504C3.24752 6.73698 3.75039 5.39547 4.66471 4.35107C5.57902 3.30668 6.84224 2.63082 8.21845 2.44973C8.56645 2.40723 8.91887 2.47843 9.22309 2.65269C9.52731 2.82694 9.76701 3.09492 9.90642 3.4166L12.0514 8.20527V8.21746C12.1581 8.4637 12.2022 8.73255 12.1797 8.99998C12.1572 9.26741 12.0688 9.5251 11.9224 9.75004C11.9042 9.77746 11.8849 9.80285 11.8645 9.82824L9.75001 12.3348C10.5107 13.8806 12.1276 15.4832 13.6937 16.246L16.1657 14.1426C16.19 14.1222 16.2154 14.1032 16.2419 14.0857C16.4666 13.9358 16.7252 13.8443 16.9942 13.8195C17.2632 13.7947 17.5342 13.8373 17.7826 13.9436L17.7958 13.9497L22.5804 16.0936C22.9027 16.2325 23.1713 16.472 23.3461 16.7763C23.5209 17.0806 23.5926 17.4332 23.5503 17.7816Z" fill="#F2F2F2"/>
</svg>