<svg xmlns="http://www.w3.org/2000/svg" width="24" height="24" viewBox="0 0 24 24" fill="none">
  <path d="M19.2812 18.9693C19.3509 19.039 19.4062 19.1217 19.4439 19.2128C19.4816 19.3038 19.501 19.4014 19.501 19.4999C19.501 19.5985 19.4816 19.6961 19.4439 19.7871C19.4062 19.8781 19.3509 19.9609 19.2812 20.0306C19.2115 20.1002 19.1288 20.1555 19.0378 20.1932C18.9467 20.2309 18.8491 20.2503 18.7506 20.2503C18.652 20.2503 18.5545 20.2309 18.4634 20.1932C18.3724 20.1555 18.2896 20.1002 18.22 20.0306L10.72 12.5306C10.6502 12.4609 10.5949 12.3782 10.5572 12.2871C10.5194 12.1961 10.5 12.0985 10.5 11.9999C10.5 11.9014 10.5194 11.8038 10.5572 11.7127C10.5949 11.6217 10.6502 11.539 10.72 11.4693L18.22 3.9693C18.3607 3.82857 18.5516 3.74951 18.7506 3.74951C18.9496 3.74951 19.1405 3.82857 19.2812 3.9693C19.4219 4.11003 19.501 4.30091 19.501 4.49993C19.501 4.69895 19.4219 4.88982 19.2812 5.03055L12.3109 11.9999L19.2812 18.9693ZM4.8109 11.9999L11.7812 5.03055C11.9219 4.88982 12.001 4.69895 12.001 4.49993C12.001 4.30091 11.9219 4.11003 11.7812 3.9693C11.6405 3.82857 11.4496 3.74951 11.2506 3.74951C11.0516 3.74951 10.8607 3.82857 10.72 3.9693L3.21996 11.4693C3.15023 11.539 3.09491 11.6217 3.05717 11.7127C3.01943 11.8038 3 11.9014 3 11.9999C3 12.0985 3.01943 12.1961 3.05717 12.2871C3.09491 12.3782 3.15023 12.4609 3.21996 12.5306L10.72 20.0306C10.7896 20.1002 10.8724 20.1555 10.9634 20.1932C11.0545 20.2309 11.152 20.2503 11.2506 20.2503C11.3491 20.2503 11.4467 20.2309 11.5378 20.1932C11.6288 20.1555 11.7115 20.1002 11.7812 20.0306C11.8509 19.9609 11.9062 19.8781 11.9439 19.7871C11.9816 19.6961 12.001 19.5985 12.001 19.4999C12.001 19.4014 11.9816 19.3038 11.9439 19.2128C11.9062 19.1217 11.8509 19.039 11.7812 18.9693L4.8109 11.9999Z" fill="#B78D58"/>
</svg>