<?xml version="1.0" standalone="no"?>
<!DOCTYPE svg PUBLIC "-//W3C//DTD SVG 20010904//EN"
 "http://www.w3.org/TR/2001/REC-SVG-20010904/DTD/svg10.dtd">
<svg version="1.0" xmlns="http://www.w3.org/2000/svg"
 width="3500.000000pt" height="602.000000pt" viewBox="0 0 3500.000000 602.000000"
 preserveAspectRatio="xMidYMid meet">

<g transform="translate(0.000000,602.000000) scale(0.100000,-0.100000)"
fill="#000000" stroke="none">
<path d="M27715 5670 c-732 -45 -1303 -478 -1667 -1265 -291 -630 -441 -1656
-342 -2334 110 -756 504 -1231 1121 -1351 67 -13 168 -23 268 -27 88 -3 177
-9 198 -14 57 -15 102 -62 173 -183 36 -61 120 -197 187 -302 l121 -191 106
47 c539 240 1030 464 1030 469 0 3 -102 128 -226 276 -124 149 -237 285 -251
303 l-25 32 97 102 c534 556 845 1507 849 2593 0 154 -4 305 -12 370 -42 357
-156 692 -315 924 -69 100 -223 256 -317 318 -196 131 -435 212 -670 228 -172
11 -207 12 -325 5z m134 -1195 c30 -17 67 -47 82 -67 33 -47 63 -155 85 -312
19 -133 13 -276 -27 -676 -53 -533 -158 -1035 -258 -1240 -51 -105 -163 -218
-246 -250 -84 -31 -202 -26 -267 13 -49 28 -109 89 -131 134 -77 151 -79 557
-6 1143 35 279 106 631 166 819 28 90 95 229 156 323 65 102 168 151 307 145
72 -2 94 -8 139 -32z"/>
<path d="M23533 5565 c-11 -8 -28 -33 -37 -56 -9 -23 -169 -477 -356 -1008
-186 -531 -533 -1519 -770 -2196 -438 -1247 -532 -1517 -527 -1521 1 -1 284
-4 629 -5 577 -2 629 -1 653 15 31 21 39 37 65 146 21 83 91 338 131 473 l20
67 399 0 400 0 0 -350 0 -350 656 0 656 0 -6 48 c-3 26 -96 1095 -206 2377
-111 1282 -203 2340 -206 2353 l-4 22 -738 0 c-633 0 -741 -2 -759 -15z m570
-1607 c13 -425 30 -1488 25 -1493 -3 -3 -122 -4 -265 -3 l-260 3 193 690 c106
380 214 765 240 858 26 92 50 167 54 167 4 0 10 -100 13 -222z"/>
<path d="M29862 5337 c-116 -841 -355 -2653 -382 -2887 -62 -549 -14 -936 151
-1225 51 -91 175 -227 263 -290 173 -122 428 -205 725 -236 148 -15 538 -7
690 16 620 90 1036 400 1271 949 82 190 144 412 189 671 26 154 385 2837 426
3188 l6 57 -669 0 c-595 0 -671 -2 -676 -15 -3 -9 -46 -330 -96 -713 -117
-901 -297 -2250 -316 -2372 -38 -240 -69 -346 -117 -412 -77 -104 -300 -142
-414 -72 -74 46 -97 101 -101 239 -3 97 21 292 207 1700 116 875 213 1602 216
1618 l5 27 -673 0 -672 0 -33 -243z"/>
<path d="M33659 5578 c-1 -2 -144 -1081 -318 -2398 l-316 -2395 655 -3 c616
-2 655 -1 672 16 21 21 6 -84 198 1372 83 630 207 1566 275 2080 68 514 133
1012 145 1105 11 94 22 182 25 198 l5 27 -670 0 c-369 0 -670 -1 -671 -2z"/>
</g>
</svg>
