<svg width="37" height="37" viewBox="0 0 37 37" fill="none" xmlns="http://www.w3.org/2000/svg">
<g id="ClockClockwise">
<path id="Vector" d="M20.2344 11.5625V17.5186L25.173 20.4815C25.3727 20.5964 25.5476 20.75 25.6873 20.9332C25.827 21.1164 25.9288 21.3256 25.9867 21.5486C26.0447 21.7715 26.0577 22.0038 26.0248 22.2319C25.992 22.4599 25.9141 22.6792 25.7956 22.8768C25.6771 23.0744 25.5205 23.2464 25.3348 23.3828C25.1491 23.5191 24.9381 23.6172 24.7141 23.6711C24.4901 23.725 24.2576 23.7337 24.0301 23.6968C23.8027 23.6599 23.5849 23.578 23.3895 23.456L17.6083 19.9872C17.3513 19.8332 17.1387 19.6153 16.991 19.3546C16.8434 19.094 16.7657 18.7996 16.7657 18.5V11.5625C16.7657 11.1025 16.9484 10.6614 17.2736 10.3361C17.5989 10.0109 18.04 9.82813 18.5 9.82813C18.96 9.82813 19.4012 10.0109 19.7264 10.3361C20.0517 10.6614 20.2344 11.1025 20.2344 11.5625ZM32.375 7.51563C31.915 7.51563 31.4739 7.69836 31.1486 8.02361C30.8234 8.34887 30.6406 8.79002 30.6406 9.25V10.3152C30.0322 9.64024 29.4006 8.96961 28.7198 8.2802C26.711 6.27161 24.1548 4.89953 21.3707 4.3354C18.5865 3.77126 15.6979 4.0401 13.0656 5.10831C10.4334 6.17651 8.17431 7.99673 6.57065 10.3415C4.96698 12.6863 4.08986 15.4517 4.04887 18.2921C4.00788 21.1325 4.80484 23.9221 6.34017 26.3122C7.87551 28.7022 10.0811 30.5869 12.6814 31.7306C15.2818 32.8743 18.1615 33.2264 20.9607 32.7429C23.76 32.2593 26.3547 30.9615 28.4207 29.0118C28.7553 28.6959 28.9507 28.26 28.964 27.8001C28.9773 27.3401 28.8073 26.8937 28.4915 26.5591C28.1756 26.2244 27.7398 26.029 27.2798 26.0157C26.8198 26.0024 26.3734 26.1724 26.0388 26.4882C24.4689 27.9698 22.4974 28.9559 20.3703 29.3235C18.2433 29.6912 16.0551 29.4239 14.0791 28.5552C12.103 27.6865 10.4267 26.2549 9.25955 24.4391C8.09238 22.6233 7.48606 20.5039 7.51634 18.3456C7.54662 16.1872 8.21215 14.0856 9.4298 12.3033C10.6475 10.521 12.3633 9.13691 14.3629 8.32399C16.3625 7.51107 18.5574 7.30533 20.6732 7.73247C22.7891 8.1596 24.7322 9.20068 26.2599 10.7257C27.1155 11.5914 27.8946 12.4297 28.6505 13.2969H26.5938C26.1338 13.2969 25.6926 13.4796 25.3674 13.8049C25.0421 14.1301 24.8594 14.5713 24.8594 15.0313C24.8594 15.4912 25.0421 15.9324 25.3674 16.2576C25.6926 16.5829 26.1338 16.7656 26.5938 16.7656H32.375C32.835 16.7656 33.2762 16.5829 33.6014 16.2576C33.9267 15.9324 34.1094 15.4912 34.1094 15.0313V9.25C34.1094 8.79002 33.9267 8.34887 33.6014 8.02361C33.2762 7.69836 32.835 7.51563 32.375 7.51563Z" fill="#1F3A5F"/>
</g>
</svg>
