<svg width="37" height="37" viewBox="0 0 37 37" fill="none" xmlns="http://www.w3.org/2000/svg">
<g id="ShootingStar">
<path id="Vector" d="M35.1443 9.95097C34.9906 9.47546 34.6987 9.05652 34.3059 8.74761C33.9131 8.4387 33.4371 8.25384 32.9387 8.2166L27.9495 7.82347L26.033 3.27508C25.8385 2.81816 25.5139 2.42852 25.0997 2.15465C24.6854 1.88078 24.1998 1.73476 23.7032 1.73476C23.2066 1.73476 22.721 1.88078 22.3067 2.15465C21.8925 2.42852 21.5679 2.81816 21.3734 3.27508L19.4569 7.81769L14.4691 8.21082C13.9715 8.24809 13.4963 8.43261 13.104 8.74089C12.7117 9.04916 12.42 9.46723 12.266 9.94186C12.1121 10.4165 12.1029 10.9262 12.2397 11.406C12.3764 11.8859 12.6529 12.3142 13.0339 12.6364L16.8163 15.8305L15.66 20.6C15.5448 21.0837 15.5749 21.5906 15.7468 22.0572C15.9186 22.5238 16.2245 22.9292 16.6259 23.2225C17.0273 23.5159 17.5065 23.6841 18.0032 23.7061C18.4999 23.7281 18.9921 23.6029 19.4179 23.3461L23.7032 20.7634L27.9799 23.3375C28.4057 23.5942 28.8978 23.7194 29.3945 23.6974C29.8913 23.6754 30.3704 23.5072 30.7718 23.2139C31.1733 22.9205 31.4791 22.5151 31.651 22.0485C31.8228 21.582 31.853 21.075 31.7377 20.5914L30.5814 15.8218L34.3638 12.6277C34.745 12.3095 35.0228 11.8849 35.1618 11.4082C35.3008 10.9315 35.2947 10.4242 35.1443 9.95097ZM27.5333 13.875C27.287 14.0829 27.1036 14.3553 27.0035 14.6617C26.9034 14.968 26.8907 15.2962 26.9667 15.6094L27.8339 19.2096L24.595 17.2585C24.3246 17.0968 24.0154 17.0114 23.7003 17.0114C23.3852 17.0114 23.0761 17.0968 22.8057 17.2585L19.5667 19.2096L20.4339 15.6094C20.5098 15.2961 20.4968 14.9678 20.3965 14.6614C20.2961 14.3551 20.1124 14.0827 19.8659 13.875L17.0548 11.4873L20.788 11.1983C21.1049 11.1732 21.4087 11.0615 21.6664 10.8754C21.9241 10.6894 22.1257 10.4361 22.2492 10.1432L23.7032 6.67734L25.1644 10.1374C25.2879 10.4303 25.4895 10.6836 25.7472 10.8697C26.0049 11.0557 26.3088 11.1674 26.6256 11.1925L30.3574 11.4816L27.5333 13.875ZM4.69734 26.6689C4.37152 26.9947 3.92961 27.1778 3.46883 27.1778C3.00805 27.1778 2.56614 26.9947 2.24031 26.6689C1.91449 26.3431 1.73145 25.9012 1.73145 25.4404C1.73145 24.9796 1.91449 24.5377 2.24031 24.2119L9.72125 16.7324C10.0471 16.4066 10.489 16.2235 10.9498 16.2235C11.4105 16.2235 11.8525 16.4066 12.1783 16.7324C12.5041 17.0582 12.6871 17.5001 12.6871 17.9609C12.6871 18.4217 12.5041 18.8636 12.1783 19.1894L4.69734 26.6689ZM13.8881 25.4303C14.0498 25.5914 14.1781 25.7829 14.2656 25.9937C14.3531 26.2045 14.3982 26.4305 14.3982 26.6588C14.3982 26.8871 14.3531 27.1131 14.2656 27.3239C14.1781 27.5347 14.0498 27.7262 13.8881 27.8873L7.00984 34.767C6.84851 34.9283 6.65699 35.0563 6.4462 35.1436C6.23541 35.2309 6.00949 35.2759 5.78133 35.2759C5.55317 35.2759 5.32725 35.2309 5.11646 35.1436C4.90567 35.0563 4.71414 34.9283 4.55281 34.767C4.39148 34.6057 4.26351 34.4141 4.1762 34.2033C4.08888 33.9925 4.04395 33.7666 4.04395 33.5385C4.04395 33.3103 4.08888 33.0844 4.1762 32.8736C4.26351 32.6628 4.39148 32.4713 4.55281 32.31L11.4325 25.4317C11.5932 25.2701 11.7842 25.1417 11.9945 25.0539C12.2049 24.9661 12.4304 24.9207 12.6584 24.9202C12.8863 24.9196 13.1121 24.964 13.3228 25.0508C13.5336 25.1376 13.7252 25.2651 13.8866 25.4259L13.8881 25.4303ZM22.9126 26.812C23.0743 26.9731 23.2026 27.1646 23.2901 27.3754C23.3777 27.5862 23.4227 27.8122 23.4227 28.0405C23.4227 28.2688 23.3777 28.4948 23.2901 28.7056C23.2026 28.9164 23.0743 29.1079 22.9126 29.269L17.4204 34.7612C17.0946 35.087 16.6527 35.2701 16.1919 35.2701C15.7311 35.2701 15.2892 35.087 14.9634 34.7612C14.6376 34.4354 14.4545 33.9935 14.4545 33.5327C14.4545 33.0719 14.6376 32.63 14.9634 32.3042L20.4556 26.812C20.6164 26.6502 20.8076 26.5218 21.0181 26.434C21.2286 26.3462 21.4544 26.3008 21.6825 26.3004C21.9106 26.3 22.1365 26.3446 22.3473 26.4317C22.5582 26.5187 22.7498 26.6465 22.9112 26.8077L22.9126 26.812Z" fill="#1F3A5F"/>
</g>
</svg>
