<svg xmlns="http://www.w3.org/2000/svg" width="25" height="25" viewBox="0 0 25 25" fill="none">
  <g clip-path="url(#clip0_46_19)">
    <path d="M11.5829 14.9642C12.5881 14.295 13.3513 13.3201 13.7595 12.1836C14.1678 11.0472 14.1995 9.80948 13.8499 8.65361C13.5003 7.49774 12.7881 6.48505 11.8185 5.76529C10.8488 5.04553 9.67332 4.65692 8.46574 4.65692C7.25817 4.65692 6.08266 5.04553 5.11303 5.76529C4.1434 6.48505 3.43114 7.49774 3.08158 8.65361C2.73202 9.80948 2.7637 11.0472 3.17196 12.1836C3.58022 13.3201 4.34337 14.295 5.34856 14.9642C3.53027 15.6344 1.97741 16.8745 0.921682 18.4995C0.866197 18.582 0.827657 18.6747 0.808302 18.7721C0.788947 18.8696 0.789164 18.97 0.80894 19.0674C0.828715 19.1648 0.867655 19.2573 0.923496 19.3395C0.979337 19.4218 1.05096 19.4921 1.13422 19.5464C1.21747 19.6007 1.31068 19.6379 1.40844 19.6558C1.5062 19.6738 1.60655 19.6722 1.70367 19.651C1.80078 19.6298 1.89272 19.5896 1.97414 19.5325C2.05556 19.4755 2.12483 19.4029 2.17793 19.3189C2.85892 18.2715 3.79077 17.4108 4.88884 16.815C5.98692 16.2192 7.21644 15.9071 8.46574 15.9071C9.71505 15.9071 10.9446 16.2192 12.0426 16.815C13.1407 17.4108 14.0726 18.2715 14.7536 19.3189C14.8636 19.4824 15.0335 19.596 15.2266 19.6352C15.4197 19.6744 15.6205 19.6361 15.7856 19.5284C15.9506 19.4208 16.0667 19.2525 16.1086 19.0599C16.1506 18.8674 16.1151 18.6661 16.0098 18.4995C14.9541 16.8745 13.4012 15.6344 11.5829 14.9642ZM4.34074 10.2842C4.34074 9.46836 4.58267 8.67083 5.03593 7.99248C5.48919 7.31412 6.13343 6.78541 6.88718 6.4732C7.64092 6.16099 8.47032 6.0793 9.27049 6.23846C10.0707 6.39763 10.8057 6.7905 11.3826 7.36739C11.9595 7.94428 12.3523 8.67928 12.5115 9.47946C12.6706 10.2796 12.589 11.109 12.2767 11.8628C11.9645 12.6165 11.4358 13.2608 10.7575 13.714C10.0791 14.1673 9.28159 14.4092 8.46574 14.4092C7.37211 14.408 6.32362 13.973 5.5503 13.1996C4.77698 12.4263 4.34199 11.3778 4.34074 10.2842ZM24.0414 19.5373C23.8748 19.646 23.6719 19.684 23.4772 19.643C23.2826 19.6021 23.1122 19.4855 23.0036 19.3189C22.3234 18.2709 21.3917 17.4098 20.2934 16.8142C19.1951 16.2187 17.9651 15.9075 16.7157 15.9092C16.5168 15.9092 16.3261 15.8302 16.1854 15.6895C16.0448 15.5489 15.9657 15.3581 15.9657 15.1592C15.9657 14.9603 16.0448 14.7695 16.1854 14.6289C16.3261 14.4882 16.5168 14.4092 16.7157 14.4092C17.3232 14.4086 17.9231 14.2739 18.4724 14.0146C19.0218 13.7554 19.5071 13.3779 19.8937 12.9094C20.2803 12.4408 20.5586 11.8926 20.7088 11.304C20.859 10.7154 20.8773 10.1009 20.7625 9.50434C20.6476 8.90783 20.4024 8.34404 20.0444 7.85326C19.6864 7.36249 19.2245 6.95684 18.6915 6.6653C18.1586 6.37376 17.5678 6.20353 16.9615 6.16677C16.3551 6.13 15.7481 6.22762 15.1839 6.45264C15.0919 6.49241 14.9928 6.51334 14.8926 6.51419C14.7924 6.51503 14.693 6.49578 14.6003 6.45757C14.5077 6.41936 14.4236 6.36297 14.3531 6.29172C14.2826 6.22047 14.2271 6.13582 14.1899 6.04276C14.1527 5.9497 14.1345 5.85012 14.1364 5.74991C14.1383 5.6497 14.1603 5.55089 14.201 5.45931C14.2418 5.36774 14.3005 5.28527 14.3736 5.21676C14.4468 5.14825 14.5329 5.0951 14.627 5.06045C15.9184 4.54544 17.3547 4.52691 18.6589 5.00843C19.9632 5.48995 21.0429 6.43741 21.6897 7.66803C22.3366 8.89865 22.5048 10.3252 22.162 11.6726C21.8191 13.0199 20.9894 14.1925 19.8329 14.9642C21.6512 15.6344 23.2041 16.8745 24.2598 18.4995C24.3684 18.6661 24.4065 18.869 24.3655 19.0637C24.3245 19.2583 24.2079 19.4287 24.0414 19.5373Z" fill="white"/>
  </g>
  <defs>
    <clipPath id="clip0_46_19">
      <rect width="24" height="24" fill="white" transform="translate(0.59082 0.15918)"/>
    </clipPath>
  </defs>
</svg>