<svg width="45" height="45" viewBox="0 0 45 45" fill="none" xmlns="http://www.w3.org/2000/svg">
<g id="WhatsappLogo">
<path id="Vector" d="M32.9239 27.9598C32.6342 29.3929 31.8584 30.682 30.7277 31.609C29.597 32.5359 28.1809 33.0439 26.7188 33.0469C22.804 33.0427 19.0507 31.4857 16.2825 28.7176C13.5143 25.9494 11.9573 22.1961 11.9532 18.2813C11.9562 16.8192 12.4641 15.403 13.3911 14.2724C14.3181 13.1417 15.6072 12.3659 17.0403 12.0762C17.4933 11.9866 17.9633 12.0481 18.378 12.2513C18.7927 12.4545 19.1292 12.7883 19.336 13.2012L21.3539 17.2442C21.5194 17.5763 21.5944 17.9462 21.5713 18.3166C21.5481 18.6869 21.4277 19.0446 21.2221 19.3536L19.7244 21.6001C20.4955 23.2079 21.7922 24.5046 23.4 25.2756L25.6465 23.778C25.9554 23.5724 26.3131 23.452 26.6835 23.4288C27.0539 23.4057 27.4238 23.4806 27.7559 23.6462L31.7989 25.6641C32.2118 25.8709 32.5455 26.2074 32.7488 26.6221C32.952 27.0368 33.0135 27.5068 32.9239 27.9598ZM41.4844 22.5001C41.4851 25.7519 40.6505 28.9495 39.0605 31.7862C37.4705 34.6229 35.1786 37.0036 32.4043 38.7001C29.63 40.3967 26.4665 41.3521 23.2169 41.4749C19.9674 41.5977 16.7407 40.8837 13.8463 39.4014L8.14573 41.3087C7.52516 41.5178 6.8585 41.5495 6.2209 41.4001C5.58329 41.2506 5.00009 40.9261 4.53703 40.4631C4.07396 40 3.74944 39.4168 3.60004 38.7792C3.45063 38.1416 3.48229 37.4749 3.69144 36.8544L5.59163 31.1538C4.28679 28.5979 3.57837 25.7794 3.51964 22.9102C3.46092 20.0411 4.0534 17.196 5.25256 14.5888C6.45171 11.9817 8.22633 9.68027 10.443 7.8577C12.6596 6.03512 15.2606 4.73879 18.0504 4.06618C20.8402 3.39356 23.7462 3.36216 26.5499 3.97434C29.3535 4.58653 31.9819 5.82635 34.2374 7.60061C36.493 9.37487 38.3169 11.6374 39.5721 14.218C40.8273 16.7987 41.4811 19.6303 41.4844 22.5001ZM37.2657 22.5001C37.2648 20.2352 36.7429 18.0009 35.7404 15.97C34.7379 13.9391 33.2817 12.166 31.4843 10.7879C29.6869 9.40983 27.5966 8.46369 25.3751 8.02269C23.1536 7.58169 20.8604 7.65764 18.6729 8.24466C16.4855 8.83169 14.4624 9.91406 12.7601 11.408C11.0579 12.902 9.72213 14.7676 8.85621 16.8604C7.99028 18.9532 7.6174 21.2171 7.76639 23.4771C7.91539 25.737 8.58227 27.9324 9.71546 29.8934C9.86523 30.152 9.95835 30.4395 9.98866 30.7367C10.019 31.034 9.98576 31.3343 9.89124 31.6178L8.14573 36.8544L13.3823 35.1088C13.5977 35.0371 13.8232 35.0003 14.0502 34.9999C14.4207 35.0005 14.7845 35.0987 15.1049 35.2846C17.3497 36.5835 19.897 37.2683 22.4904 37.27C25.0839 37.2716 27.6321 36.5902 29.8785 35.2942C32.125 33.9982 33.9905 32.1334 35.2873 29.8874C36.584 27.6415 37.2664 25.0935 37.2657 22.5001Z" fill="white"/>
</g>
</svg>
